# xmcd
# Track frame offsets:
# 150
# 18049
# 36811
# 58084
# 76924
# 93435
# 107563
# 124150
# 138189
# 155453
# 173352
# 192114
# 213387
# 232227
# 248738
# 262866
# 279453
# 293492
#
# Disc length: 4143 seconds
# Revision: 2
# Processed by: cddbd v1.5.1PL0 Copyright (c) Steve Scherf et al.
# Submitted via: VisiTrax 2.9.10.228 - For more info visit www.synapsa.com
#
DISCID=e7102d12
DTITLE=Various Artist - PHN0410
DYEAR=2004
DGENRE=Karaoke
TTITLE0=Bentley, Dierks - How Am I Doin'
TTITLE1=Strait, George - I Hate Everything
TTITLE2=Montgomery, John Michael - Goes Good With Beer
TTITLE3=Tyler, Ryan - The Last Thing She Said
TTITLE4=Brooks and Dunn - That's What It's All About
TTITLE5=Lawrence, Tracy - It's All How You Look At It
TTITLE6=Montgomery Gentry - You Do Your Thing
TTITLE7=Trick Pony - The Bride
TTITLE8=Wayne, Jimmy - You Are
TTITLE9=Bentley, Dierks - How Am I Doin' - w/Vocal
TTITLE10=Strait, George - I Hate Everything - w/Vocal
TTITLE11=Montgomery, John Michael - Goes Good With Beer - w/Vocal
TTITLE12=Ryan Tyler - The Last Thing She Said - w/Vocal
TTITLE13=Brooks and Dunn - That's What It's All About - w/Vocal
TTITLE14=Lawrence, Tracy - It's All How You Look At It - w/Vocal
TTITLE15=Montgomery Gentry - You Do Your Thing - w/Vocal
TTITLE16=Trick Pony - The Bride - w/Vocal
TTITLE17=Wayne, Jimmy - You Are - w/Vocal
EXTD=
EXTT0=
EXTT1=
EXTT2=
EXTT3=
EXTT4=
EXTT5=
EXTT6=
EXTT7=
EXTT8=
EXTT9=
EXTT10=
EXTT11=
EXTT12=
EXTT13=
EXTT14=
EXTT15=
EXTT16=
EXTT17=
PLAYORDER=
